HIERARCHY
ROOT ui
{
	 OFFSET 0 0 0
	 CHANNELS 3 XPosition YPosition Z Position
	 EndSite
	 {
	 OFFSET 0 -1 0
	 }
}
ROOT li
{
	 OFFSET 0 0 0
	 CHANNELS 3 XPosition YPosition Z Position
	 EndSite
	 {
	 OFFSET 0 -1 0
	 }
}
ROOT ul
{
	 OFFSET 0 0 0
	 CHANNELS 3 XPosition YPosition Z Position
	 EndSite
	 {
	 OFFSET 0 -1 0
	 }
}
ROOT ll
{
	 OFFSET 0 0 0
	 CHANNELS 3 XPosition YPosition Z Position
	 EndSite
	 {
	 OFFSET 0 -1 0
	 }
}
ROOT tt
{
	 OFFSET 0 0 0
	 CHANNELS 3 XPosition YPosition Z Position
	 EndSite
	 {
	 OFFSET 0 -1 0
	 }
}
ROOT tb
{
	 OFFSET 0 0 0
	 CHANNELS 3 XPosition YPosition Z Position
	 EndSite
	 {
	 OFFSET 0 -1 0
	 }
}
ROOT td
{
	 OFFSET 0 0 0
	 CHANNELS 3 XPosition YPosition Z Position
	 EndSite
	 {
	 OFFSET 0 -1 0
	 }
}
ROOT v
{
	 OFFSET 0 0 0
	 CHANNELS 3 XPosition YPosition Z Position
	 EndSite
	 {
	 OFFSET 0 -1 0
	 }
}
ROOT bn
{
	 OFFSET 0 0 0
	 CHANNELS 3 XPosition YPosition Z Position
	 EndSite
	 {
	 OFFSET 0 -1 0
	 }
}
MOTION
Frames: 13
Frame Time: 0.002
0.0012487399578094483	-8.39368999004364E-4	0		0.4568388671875	-2.3392890625	0		-1.0654107666015624	-0.08493122100830078	0		-0.7204725952148437	-2.346406005859375	0		1.1830693359375	-0.6979132690429688	0		2.7855556640625	-0.00823110294342041	0		4.42404150390625	0.17373257446289062	0		5.57008056640625	0.10939297485351562	0		-0.23092576599121092	5.8542001953125	0		
-0.01640314483642578	0.01033837890625	0		0.48125643920898437	-2.31987548828125	0		-0.9973458862304687	-0.09024146270751954	0		-0.7204070434570312	-2.3465205078125	0		1.183194091796875	-0.6980961303710937	0		2.785705322265625	-0.008471466064453126	0		4.41834033203125	0.18153880310058593	0		5.565376953125	0.11714030456542969	0		-0.23154800415039062	5.8550859375	0		
-0.0033813040256500245	0.002966552972793579	0		0.42738168334960935	-2.31607373046875	0		-1.0691717529296876	-0.08806467437744141	0		-0.6854037475585938	-2.350259033203125	0		1.30713671875	-0.7094886474609375	0		2.75889306640625	-0.00623485803604126	0		4.41849560546875	0.18123504638671875	0		5.57038623046875	0.10870676422119141	0		-0.2311854248046875	5.85495263671875	0		
0.0016900960206985473	-0.0012627569437026977	0		0.492822998046875	-2.35140283203125	0		-1.101954833984375	-0.0835780029296875	0		-0.7443547973632813	-2.350321533203125	0		1.1174986572265626	-0.6942880859375	0		2.764910400390625	-0.013582709312438965	0		4.41735986328125	0.16495278930664062	0		5.56567724609375	0.11644988250732421	0		-0.20147515869140625	5.87429931640625	0		
0.004879977226257324	0.0015452500581741332	0		0.4632019348144531	-2.333024658203125	0		-1.0548643798828126	-0.08651641845703124	0		-0.712093017578125	-2.3390068359375	0		1.19174169921875	-0.687790771484375	0		2.793310302734375	6.769639849662781E-4	0		4.4208779296875	0.18559921264648438	0		5.56994287109375	0.12303938293457031	0		-0.19918124389648437	5.87113330078125	0		
0.00195475697517395	-0.0015338820219039917	0		0.4575725402832031	-2.3150693359375	0		-1.0647198486328124	-0.08543400573730468	0		-0.7161171875	-2.34304296875	0		1.12078564453125	-0.6906924438476563	0		2.784475830078125	0.002607825994491577	0		4.42302978515625	0.18627667236328124	0		5.5700751953125	0.1227129898071289	0		-0.2007955322265625	5.87404248046875	0		
0.002071258068084717	-0.001660964012145996	0		0.4555770263671875	-2.31717529296875	0		-1.064606201171875	-0.0855258560180664	0		-0.683173095703125	-2.34873779296875	0		1.1837435302734376	-0.698986328125	0		2.76352392578125	-0.0012335339784622192	0		4.42490087890625	0.17196990966796874	0		5.560927734375	0.10756597137451172	0		-0.22885743713378906	5.85342822265625	0		
-0.005807663917541504	-6.364030241966248E-4	0		0.45560684204101565	-2.31730859375	0		-1.068560302734375	-0.08853941345214844	0		-0.7201203002929687	-2.347170654296875	0		1.1178883056640625	-0.694955810546875	0		2.7653916015625	-0.014472390174865723	0		4.40815478515625	0.18001768493652343	0		5.561033203125	0.10727400970458985	0		-0.22857359313964845	5.85331591796875	0		
-0.002670217990875244	0.002200109004974365	0		0.46604568481445313	-2.349623779296875	0		-1.064425537109375	-0.08569022369384766	0		-0.7082141723632812	-2.35347412109375	0		1.1179521484375	-0.6950972290039062	0		2.776599365234375	-0.007860644817352295	0		4.41309912109375	0.17169248962402345	0		5.56626318359375	0.11491293334960938	0		-0.19898313903808593	5.87168798828125	0		
-0.002606822967529297	0.002102998971939087	0		0.4612823181152344	-2.336645263671875	0		-1.097286865234375	-0.08116470336914063	0		-0.7400814819335938	-2.3459765625	0		1.1241224365234375	-0.688333251953125	0		2.780752197265625	-0.0031040849685668947	0		4.41729248046875	0.17840553283691407	0		5.570455078125	0.12159552764892578	0		-0.1997285614013672	5.87361376953125	0		
-0.01238347053527832	0.012198368072509765	0		0.45764788818359375	-2.3156708984375	0		-0.992355224609375	-0.08811801910400391	0		-0.7160457763671875	-2.3434765625	0		1.1860286865234375	-0.6955624389648437	0		2.786665771484375	-0.010360950469970704	0		4.42831787109375	0.1770185546875	0		5.56637353515625	0.11445310974121094	0		-0.22792291259765626	5.8530439453125	0		
0.002379483938217163	-0.002140007019042969	0		0.4555819396972656	-2.317713623046875	0		-1.064308837890625	-0.08586517333984375	0		-0.7181123046875	-2.345494873046875	0		1.18396044921875	-0.6996201171875	0		2.789773681640625	-0.005543957233428955	0		4.41735986328125	0.17805503845214843	0		5.56639404296875	0.11426705932617187	0		-0.22778224182128906	5.8529794921875	0		
-0.005604732036590576	-0.0010517679452896119	0		0.45348281860351564	-2.320741455078125	0		-0.999469482421875	-0.09507766723632813	0		-0.72019384765625	-2.347501708984375	0		1.1839442138671874	-0.69969775390625	0		2.771845458984375	-0.0013252040147781372	0		4.4362294921875	0.17057667541503907	0		5.56124853515625	0.10620265960693359	0		-0.20028704833984376	5.8744345703125	0		
